<svg width="320" height="80" viewBox="0 0 320 80" fill="none" xmlns="http://www.w3.org/2000/svg">
<g clip-path="url(#clip0_1_213)">
<path d="M165.121 78.0391H151.911V23.879H164.78V31.1077C168.203 25.482 174.485 22.1197 181.18 22.3214C194.731 22.3214 201.225 31.8891 201.225 43.7858V78.0441H188.015V46.0139C188.015 39.3447 184.938 34.0013 176.627 34.0013C169.106 34.0013 165.126 39.6723 165.126 46.7902V78.0391H165.121Z" fill="#8C4AFF"/>
<path d="M291.758 79.5967C278.548 79.5967 270.8 70.029 270.8 58.0214V23.874H284.01V55.6824C284.01 62.3516 287.2 68.0277 295.17 68.0277C303.14 68.0277 306.79 63.0271 306.79 55.9042V23.874H320V68.1336C320 72.5797 319.773 76.0328 320 78.034H307.471C307.358 76.0328 307.358 74.0265 307.471 72.0302C304.741 76.925 298.247 79.5917 291.753 79.5917" fill="#8C4AFF"/>
<path d="M63.7316 22.3163C56.3601 21.913 49.3912 25.6181 45.7364 31.884C42.6753 25.7089 36.1194 21.9382 29.1092 22.3163C22.5069 22.1449 16.2917 25.351 12.7091 30.77V23.879H0L0.0671076 78.0391H13.1737V45.8979C13.1737 39.0019 17.6183 33.8853 24.6749 33.8853C32.1962 33.8853 35.3812 38.7801 35.3812 45.0057V78.0391H48.3536V45.8979C47.9303 39.6925 52.7311 34.3289 59.0857 33.9105C59.3438 33.8954 59.5967 33.8853 59.8548 33.8853C67.2573 33.8853 70.5611 38.6641 70.5611 45.0057V78.0391H83.3167V42.8834C83.3167 28.5369 73.7513 22.3113 63.7264 22.3113" fill="#8C4AFF"/>
<path d="M262.912 0L249.47 4.28986V30.2155C247.761 26.7675 242.868 22.4323 233.183 22.4323C217.568 22.4323 206.764 35.2212 206.764 50.7826C206.764 67.1304 217.47 79.3749 233.411 79.3749C239.982 79.6623 246.202 76.4764 249.692 71.0321V78.0391H262.902C262.788 77.1519 262.902 73.0384 262.902 68.1386V0H262.912ZM234.897 68.0277C225.9 68.0277 219.979 61.1317 219.979 50.7877C219.979 40.4436 226.359 33.8702 235.011 33.8702C243.663 33.8702 249.589 40.3226 249.589 50.6667C249.589 61.0107 243.554 68.0176 234.897 68.0176" fill="#8C4AFF"/>
<path d="M117.634 22.5028C101.121 22.5028 88.9382 34.6263 88.9382 51.196C88.9382 67.7656 101.126 80 117.634 80C134.143 80 146.449 67.8765 146.449 51.196C146.449 34.5154 134.262 22.5028 117.634 22.5028M131.897 56.6049C131.846 59.2564 130.06 61.5753 127.463 62.3617L104.203 69.7971C103.914 69.8878 103.604 69.7316 103.511 69.4493C103.495 69.3938 103.485 69.3384 103.485 69.2829V45.8828C103.532 43.2312 105.323 40.9074 107.919 40.126L131.185 32.7007C131.474 32.6099 131.784 32.7662 131.877 33.0485C131.892 33.104 131.903 33.1594 131.903 33.2149V56.6099L131.897 56.6049Z" fill="#8C4AFF"/>
</g>
<defs>
<clipPath id="clip0_1_213">
<rect width="320" height="80" fill="white"/>
</clipPath>
</defs>
</svg>
